<mxfile host="app.diagrams.net" modified="2024-03-05T05:50:22.174Z" agent="Mozilla/5.0 (Macintosh; Intel Mac OS X 10_15_7) AppleWebKit/605.1.15 (KHTML, like Gecko) Version/17.0 Safari/605.1.15" version="24.0.1" etag="9ZQee2WqvrQYPfKZsCIm" type="github">
  <diagram name="Page-1" id="xYrA7Z-YhQMA6HHhseb4">
    <mxGraphModel>
      <root>
        <mxCell id="0" />
        <mxCell id="1" parent="0" />
      </root>
    </mxGraphModel>
  </diagram>
</mxfile>
